<svg width="140" height="48" viewBox="0 0 140 48" fill="none" xmlns="http://www.w3.org/2000/svg">
<g clip-path="url(#clip0_345_1835)">
<path d="M13.7027 7.00047C17.974 7.00021 22.2453 7.00021 26.5166 7.00047C27.3384 7.00047 27.3734 7.05373 27.3704 7.85399C27.358 11.2156 27.3572 14.5772 27.3511 17.9388C27.3496 18.7436 27.3338 18.7571 26.5285 18.7569C25.714 18.7566 24.8997 18.7564 24.0852 18.7577C23.3817 18.7587 23.3297 18.7072 23.3294 17.976C23.3284 16.4132 23.3124 14.8504 23.3383 13.2881C23.3467 12.7804 23.1486 12.5821 22.6693 12.5026C19.7264 12.0143 16.7868 11.5054 13.8461 11.0038C13.7748 10.9916 13.6966 10.9602 13.6326 10.9781C13.4894 11.0181 13.3533 11.0833 13.2142 11.1381C13.298 11.261 13.3543 11.432 13.4701 11.499C14.1907 11.9154 14.9242 12.3097 15.6544 12.7096C16.4641 13.153 17.256 13.635 18.0915 14.0219C18.6047 14.2594 18.7499 14.5841 18.7489 15.1162C18.741 18.4957 18.7659 21.8751 18.7656 25.2543C18.7654 28.6523 18.7481 32.0501 18.739 35.4482C18.7367 36.2754 18.6547 36.3259 17.9186 35.9018C14.8754 34.1492 11.8393 32.3837 8.78726 30.6469C8.36147 30.4045 8.22818 30.1175 8.23046 29.6468C8.24697 26.3216 8.2396 22.9962 8.23986 19.6708C8.23986 18.8244 8.18629 18.763 7.36341 18.7628C5.19159 18.7617 3.01976 18.7643 0.847935 18.7694C0.050956 18.7712 0.00170019 18.7322 0.00195409 17.961C0.00271578 14.5448 0.00423915 11.1287 0.00855538 7.71254C0.00931707 7.06342 0.0720294 7.00174 0.726065 7.00149C5.05169 6.99996 9.37706 7.00072 13.7027 7.00047Z" fill="#4E7CC8"/>
</g>
<path d="M34.4916 29.4832C34.4916 29.7892 34.4775 30.074 34.4492 30.3377C34.4304 30.5131 34.2791 30.6411 34.1027 30.6411H26.0909C25.8819 30.6411 25.7153 30.8195 25.7506 31.0255C25.8761 31.759 26.1982 32.3615 26.7168 32.833C27.3234 33.3844 28.0678 33.6601 28.95 33.6601C30.1372 33.6601 30.9982 33.195 31.5331 32.2649C31.6013 32.1464 31.7246 32.0679 31.8613 32.0679H33.6854C33.9298 32.0679 34.1026 32.3072 34.0053 32.5315C33.6402 33.3725 33.0717 34.0795 32.2998 34.6526C31.4038 35.3143 30.2872 35.6451 28.95 35.6451C27.861 35.6451 26.8823 35.4039 26.0138 34.9214C25.1591 34.4251 24.4837 33.7359 23.9874 32.8536C23.5049 31.9576 23.2637 30.9237 23.2637 29.752C23.2637 28.5803 23.498 27.5533 23.9667 26.671C24.4492 25.775 25.1178 25.0857 25.9724 24.6033C26.8409 24.1208 27.8334 23.8795 28.95 23.8795C30.0253 23.8795 30.9833 24.1139 31.8242 24.5826C32.6651 25.0513 33.3199 25.713 33.7886 26.5676C34.2573 27.4085 34.4916 28.3804 34.4916 29.4832ZM31.6662 28.7388C31.8667 28.7388 32.0307 28.5739 32.0067 28.3749C31.9219 27.6737 31.6198 27.0989 31.1005 26.6503C30.494 26.1265 29.7427 25.8646 28.8466 25.8646C28.0333 25.8646 27.3372 26.1265 26.7582 26.6503C26.2699 27.0805 25.9482 27.6431 25.7933 28.3381C25.7464 28.5489 25.9151 28.7388 26.131 28.7388H31.6662Z" fill="#001662"/>
<path d="M36.0257 29.7106C36.0257 28.5665 36.26 27.5533 36.7287 26.671C37.2112 25.7888 37.8591 25.1064 38.6724 24.6239C39.4995 24.1277 40.4093 23.8795 41.4018 23.8795C42.2979 23.8795 43.0767 24.0587 43.7384 24.4172C44.0584 24.5804 44.3474 24.7638 44.6055 24.9672C44.8753 25.1799 45.3513 25.001 45.3513 24.6575V24.4247C45.3513 24.2264 45.512 24.0656 45.7103 24.0656H47.3701C47.5684 24.0656 47.7292 24.2264 47.7292 24.4247V35.1C47.7292 35.2983 47.5684 35.459 47.3701 35.459H45.7103C45.512 35.459 45.3513 35.2983 45.3513 35.1V34.8481C45.3513 34.5023 44.8675 34.3231 44.5978 34.5395C44.3367 34.7488 44.0434 34.9382 43.7177 35.1075C43.0285 35.4659 42.2427 35.6451 41.3605 35.6451C40.3817 35.6451 39.4857 35.397 38.6724 34.9007C37.8591 34.3907 37.2112 33.6876 36.7287 32.7916C36.26 31.8818 36.0257 30.8548 36.0257 29.7106ZM45.3513 29.752C45.3513 28.9662 45.1858 28.2839 44.855 27.7049C44.5379 27.1259 44.1175 26.6848 43.5937 26.3815C43.0698 26.0783 42.5046 25.9266 41.8981 25.9266C41.2916 25.9266 40.7264 26.0783 40.2025 26.3815C39.6787 26.671 39.2514 27.1052 38.9205 27.6842C38.6035 28.2494 38.4449 28.9249 38.4449 29.7106C38.4449 30.4964 38.6035 31.1856 38.9205 31.7784C39.2514 32.3712 39.6787 32.8261 40.2025 33.1431C40.7402 33.4464 41.3053 33.598 41.8981 33.598C42.5046 33.598 43.0698 33.4464 43.5937 33.1431C44.1175 32.8398 44.5379 32.3987 44.855 31.8197C45.1858 31.227 45.3513 30.5377 45.3513 29.752Z" fill="#001662"/>
<path d="M50.0396 29.752C50.0396 28.5803 50.2739 27.5533 50.7426 26.671C51.2251 25.775 51.8868 25.0857 52.7277 24.6033C53.5686 24.1208 54.5335 23.8795 55.6226 23.8795C57.0011 23.8795 58.1383 24.2104 59.0344 24.8721C59.8295 25.4383 60.3983 26.2204 60.7407 27.2184C60.817 27.4408 60.6449 27.6635 60.4097 27.6635H58.5823C58.4316 27.6635 58.2988 27.5684 58.2362 27.4313C58.0285 26.9761 57.7294 26.6124 57.3388 26.3402C56.8839 26.0231 56.3118 25.8646 55.6226 25.8646C54.6576 25.8646 53.8856 26.2092 53.3067 26.8985C52.7415 27.5739 52.4589 28.5251 52.4589 29.752C52.4589 30.9789 52.7415 31.9369 53.3067 32.6262C53.8856 33.3154 54.6576 33.6601 55.6226 33.6601C56.8962 33.6601 57.7676 33.1378 58.2368 32.0932C58.2985 31.9559 58.4313 31.8611 58.5818 31.8611H60.3987C60.6372 31.8611 60.8096 32.0898 60.7263 32.3134C60.3726 33.262 59.8018 34.0349 59.0137 34.6319C58.1039 35.3074 56.9735 35.6451 55.6226 35.6451C54.5335 35.6451 53.5686 35.4039 52.7277 34.9214C51.8868 34.4251 51.2251 33.7359 50.7426 32.8536C50.2739 31.9576 50.0396 30.9237 50.0396 29.752Z" fill="#001662"/>
<path d="M69.117 23.8795C69.9854 23.8795 70.7574 24.0656 71.4329 24.4378C72.1221 24.81 72.6597 25.3614 73.0457 26.092C73.4455 26.8227 73.6454 27.7049 73.6454 28.7388V35.1C73.6454 35.2983 73.4846 35.459 73.2863 35.459H71.6679C71.4696 35.459 71.3088 35.2983 71.3088 35.1V29.0903C71.3088 28.0702 71.0538 27.2913 70.5437 26.7537C70.0337 26.2023 69.3375 25.9266 68.4553 25.9266C67.573 25.9266 66.87 26.2023 66.3462 26.7537C65.8361 27.2913 65.5811 28.0702 65.5811 29.0903V35.1C65.5811 35.2983 65.4203 35.459 65.222 35.459H63.5829C63.3846 35.459 63.2239 35.2983 63.2239 35.1V20.5166C63.2239 20.3183 63.3846 20.1576 63.5829 20.1576H65.222C65.4203 20.1576 65.5811 20.3183 65.5811 20.5166V24.3929C65.5811 24.7292 66.0344 24.9076 66.3079 24.7119C66.5462 24.5413 66.8071 24.3948 67.0906 24.2724C67.7109 24.0105 68.3864 23.8795 69.117 23.8795Z" fill="#001662"/>
<path d="M81.3874 35.6038C80.4224 35.6038 79.554 35.4383 78.782 35.1075C78.01 34.7629 77.4035 34.2804 76.9624 33.6601C76.5862 33.1311 76.3704 32.527 76.315 31.8476C76.2989 31.65 76.4614 31.4889 76.6597 31.4889H78.4948C78.6808 31.4889 78.833 31.6318 78.8713 31.8138C78.9716 32.2896 79.1968 32.6914 79.5471 33.0191C79.9882 33.4188 80.6016 33.6187 81.3874 33.6187C82.2007 33.6187 82.8348 33.4257 83.2897 33.0397C83.7446 32.64 83.9721 32.1299 83.9721 31.5096C83.9721 31.0271 83.8273 30.6342 83.5379 30.331C83.2622 30.0277 82.9106 29.7933 82.4833 29.6279C82.0697 29.4625 81.4908 29.2833 80.7464 29.0903C79.809 28.8422 79.0439 28.594 78.4512 28.3459C77.8722 28.084 77.3759 27.6842 76.9624 27.1466C76.5488 26.609 76.342 25.8922 76.342 24.9961C76.342 24.169 76.5488 23.4453 76.9624 22.825C77.3759 22.2046 77.9549 21.7291 78.6993 21.3982C79.4437 21.0674 80.3052 20.902 81.284 20.902C82.6763 20.902 83.8136 21.2535 84.6958 21.9565C85.4945 22.5709 85.9755 23.3933 86.139 24.4239C86.1718 24.6308 86.0054 24.81 85.7958 24.81H83.911C83.7237 24.81 83.572 24.6644 83.524 24.4833C83.4218 24.0974 83.1921 23.7583 82.8348 23.466C82.3799 23.0938 81.7803 22.9077 81.0359 22.9077C80.3604 22.9077 79.809 23.08 79.3816 23.4246C78.9543 23.7693 78.7406 24.2655 78.7406 24.9134C78.7406 25.3545 78.8716 25.7198 79.1335 26.0093C79.4092 26.285 79.7538 26.5056 80.1674 26.671C80.581 26.8364 81.1461 27.0156 81.863 27.2086C82.8141 27.4706 83.5861 27.7325 84.1789 27.9944C84.7854 28.2563 85.2955 28.663 85.709 29.2144C86.1363 29.752 86.35 30.4757 86.35 31.3855C86.35 32.1161 86.1501 32.8054 85.7504 33.4533C85.3644 34.1012 84.7923 34.625 84.0341 35.0248C83.2897 35.4108 82.4075 35.6038 81.3874 35.6038Z" fill="#001662"/>
<path d="M91.4887 24.6782C91.4887 25.0217 91.9648 25.2008 92.2339 24.9872C92.497 24.7783 92.7931 24.5883 93.1223 24.4172C93.8115 24.0587 94.5904 23.8795 95.4588 23.8795C96.4514 23.8795 97.3543 24.1277 98.1676 24.6239C98.9947 25.1064 99.6426 25.7888 100.111 26.671C100.58 27.5533 100.814 28.5665 100.814 29.7106C100.814 30.8548 100.58 31.8818 100.111 32.7916C99.6426 33.6876 98.9947 34.3907 98.1676 34.9007C97.3543 35.397 96.4514 35.6451 95.4588 35.6451C94.5904 35.6451 93.8184 35.4728 93.1429 35.1282C92.7973 34.9448 92.4842 34.7398 92.2036 34.5131C91.9409 34.3009 91.4887 34.4753 91.4887 34.813V40.5175C91.4887 40.7158 91.328 40.8766 91.1297 40.8766H89.4905C89.2922 40.8766 89.1315 40.7158 89.1315 40.5175V24.4247C89.1315 24.2264 89.2922 24.0656 89.4905 24.0656H91.1297C91.328 24.0656 91.4887 24.2264 91.4887 24.4247V24.6782ZM98.4157 29.7106C98.4157 28.9249 98.2503 28.2494 97.9195 27.6842C97.6024 27.1052 97.1751 26.671 96.6375 26.3815C96.1136 26.0783 95.5484 25.9266 94.9419 25.9266C94.3491 25.9266 93.7839 26.0783 93.2463 26.3815C92.7225 26.6848 92.2952 27.1259 91.9643 27.7049C91.6473 28.2839 91.4887 28.9662 91.4887 29.752C91.4887 30.5377 91.6473 31.227 91.9643 31.8197C92.2952 32.3987 92.7225 32.8398 93.2463 33.1431C93.7839 33.4464 94.3491 33.598 94.9419 33.598C95.5484 33.598 96.1136 33.4464 96.6375 33.1431C97.1751 32.8261 97.6024 32.3712 97.9195 31.7784C98.2503 31.1856 98.4157 30.4964 98.4157 29.7106Z" fill="#001662"/>
<path d="M102.36 29.7106C102.36 28.5665 102.594 27.5533 103.063 26.671C103.545 25.7888 104.193 25.1064 105.006 24.6239C105.834 24.1277 106.743 23.8795 107.736 23.8795C108.632 23.8795 109.411 24.0587 110.072 24.4172C110.392 24.5804 110.681 24.7638 110.94 24.9672C111.209 25.1799 111.685 25.001 111.685 24.6575V24.4247C111.685 24.2264 111.846 24.0656 112.044 24.0656H113.704C113.902 24.0656 114.063 24.2264 114.063 24.4247V35.1C114.063 35.2983 113.902 35.459 113.704 35.459H112.044C111.846 35.459 111.685 35.2983 111.685 35.1V34.8481C111.685 34.5023 111.202 34.3231 110.932 34.5395C110.671 34.7488 110.377 34.9382 110.052 35.1075C109.362 35.4659 108.577 35.6451 107.694 35.6451C106.716 35.6451 105.82 35.397 105.006 34.9007C104.193 34.3907 103.545 33.6876 103.063 32.7916C102.594 31.8818 102.36 30.8548 102.36 29.7106ZM111.685 29.752C111.685 28.9662 111.52 28.2839 111.189 27.7049C110.872 27.1259 110.452 26.6848 109.928 26.3815C109.404 26.0783 108.839 25.9266 108.232 25.9266C107.626 25.9266 107.06 26.0783 106.537 26.3815C106.013 26.671 105.585 27.1052 105.255 27.6842C104.937 28.2494 104.779 28.9249 104.779 29.7106C104.779 30.4964 104.937 31.1856 105.255 31.7784C105.585 32.3712 106.013 32.8261 106.537 33.1431C107.074 33.4464 107.639 33.598 108.232 33.598C108.839 33.598 109.404 33.4464 109.928 33.1431C110.452 32.8398 110.872 32.3987 111.189 31.8197C111.52 31.227 111.685 30.5377 111.685 29.752Z" fill="#001662"/>
<path d="M116.374 29.752C116.374 28.5803 116.608 27.5533 117.077 26.671C117.559 25.775 118.221 25.0857 119.062 24.6033C119.903 24.1208 120.868 23.8795 121.957 23.8795C123.335 23.8795 124.472 24.2104 125.368 24.8721C126.164 25.4383 126.732 26.2204 127.075 27.2184C127.151 27.4408 126.979 27.6635 126.744 27.6635H124.916C124.766 27.6635 124.633 27.5684 124.57 27.4313C124.363 26.9761 124.063 26.6124 123.673 26.3402C123.218 26.0231 122.646 25.8646 121.957 25.8646C120.992 25.8646 120.22 26.2092 119.641 26.8985C119.076 27.5739 118.793 28.5251 118.793 29.752C118.793 30.9789 119.076 31.9369 119.641 32.6262C120.22 33.3154 120.992 33.6601 121.957 33.6601C123.23 33.6601 124.102 33.1378 124.571 32.0932C124.633 31.9559 124.765 31.8611 124.916 31.8611H126.733C126.971 31.8611 127.144 32.0898 127.06 32.3134C126.707 33.262 126.136 34.0349 125.348 34.6319C124.438 35.3074 123.308 35.6451 121.957 35.6451C120.868 35.6451 119.903 35.4039 119.062 34.9214C118.221 34.4251 117.559 33.7359 117.077 32.8536C116.608 31.9576 116.374 30.9237 116.374 29.752Z" fill="#001662"/>
<path d="M140 29.4832C140 29.7892 139.986 30.074 139.958 30.3377C139.939 30.5131 139.788 30.6411 139.611 30.6411H131.599C131.39 30.6411 131.224 30.8195 131.259 31.0255C131.385 31.759 131.707 32.3615 132.225 32.833C132.832 33.3844 133.576 33.6601 134.458 33.6601C135.646 33.6601 136.507 33.195 137.042 32.2649C137.11 32.1464 137.233 32.0679 137.37 32.0679H139.194C139.438 32.0679 139.611 32.3072 139.514 32.5315C139.149 33.3725 138.58 34.0795 137.808 34.6526C136.912 35.3143 135.796 35.6451 134.458 35.6451C133.369 35.6451 132.391 35.4039 131.522 34.9214C130.668 34.4251 129.992 33.7359 129.496 32.8536C129.013 31.9576 128.772 30.9237 128.772 29.752C128.772 28.5803 129.006 27.5533 129.475 26.671C129.958 25.775 130.626 25.0857 131.481 24.6033C132.349 24.1208 133.342 23.8795 134.458 23.8795C135.534 23.8795 136.492 24.1139 137.333 24.5826C138.174 25.0513 138.828 25.713 139.297 26.5676C139.766 27.4085 140 28.3804 140 29.4832ZM137.175 28.7388C137.375 28.7388 137.539 28.5739 137.515 28.3749C137.43 27.6737 137.128 27.0989 136.609 26.6503C136.002 26.1265 135.251 25.8646 134.355 25.8646C133.542 25.8646 132.846 26.1265 132.267 26.6503C131.778 27.0805 131.457 27.6431 131.302 28.3381C131.255 28.5489 131.424 28.7388 131.64 28.7388H137.175Z" fill="#001662"/>
<defs>
<clipPath id="clip0_345_1835">
<rect width="27.3684" height="29.1631" fill="white" transform="translate(0 7)"/>
</clipPath>
</defs>
</svg>
