<svg xmlns="http://www.w3.org/2000/svg" width="132" height="48" viewBox="0 0 132 48" fill="none">
<path d="M0 4.7619C0 2.13333 2.13333 0 4.7619 0H43.2381C45.8667 0 48 2.13333 48 4.7619V43.2381C48 45.8667 45.8667 48 43.2381 48H4.7619C2.13333 48 0 45.8667 0 43.2381V4.7619Z" fill="url(#paint0_linear_4427_77281)"/>
<path d="M8.17139 10.381C8.17139 9.33335 9.02853 8.47621 10.0761 8.47621H37.9428C38.9904 8.47621 39.8476 9.33335 39.8476 10.381V14.5143C39.8476 15.5619 38.9904 16.4191 37.9428 16.4191H10.0761C9.02853 16.4191 8.17139 15.5619 8.17139 14.5143V10.381Z" fill="url(#paint1_linear_4427_77281)"/>
<path d="M28 23.3334V37.6191C28 38.6667 27.1428 39.5238 26.0952 39.5238H22C20.9524 39.5238 20.0952 38.6667 20.0952 37.6191V20.1905C20.0952 14.5524 24.5714 8.47621 31.8095 8.47621H37.9619C39.0095 8.47621 39.8666 9.33335 39.8666 10.381V14.5143C39.8666 15.5619 39.0095 16.4191 37.9619 16.4191H35.1047C30.0381 16.4191 28 18.8572 28 23.3334Z" fill="url(#paint2_linear_4427_77281)"/>
<path d="M56.1906 15.2V12.3809H69.2953V15.2H64.362V31.6571H61.1429V15.2H56.2096H56.1906Z" fill="#4D7CC8"/>
<path d="M74.3809 32C73.4857 32 72.6285 31.7714 71.8476 31.3333C71.0666 30.8952 70.419 30.2476 69.9238 29.4095C69.4285 28.5714 69.2 27.5428 69.2 26.3428V18.8H72.2285V25.9428C72.2285 26.819 72.4952 27.5809 73.0095 28.2666C73.5428 28.9143 74.2857 29.2571 75.219 29.2571C76.1523 29.2571 76.6857 28.9714 77.2761 28.419C77.8857 27.8666 78.1904 27.0666 78.1904 26.019V18.819H81.219V31.6762H78.4571V29.9619C77.9809 30.6286 77.3904 31.1428 76.6666 31.5047C75.9619 31.8476 75.1999 32.019 74.3999 32.019L74.3809 32Z" fill="#4D7CC8"/>
<path d="M86.1905 31.6571V21.2381H83.5238V18.8H86.2476V14.5143H89.1429V18.8H92.019V21.2381H89.2V31.6571H86.1714H86.1905Z" fill="#4D7CC8"/>
<path d="M99.8094 32C98.5523 32 97.3904 31.6952 96.3427 31.1047C95.2951 30.4952 94.4761 29.6762 93.8475 28.6476C93.2189 27.619 92.9332 26.4762 92.9332 25.2381C92.9332 24 93.238 22.8381 93.8475 21.8286C94.457 20.8 95.2951 19.9809 96.3427 19.3905C97.3904 18.7809 98.5332 18.4762 99.8094 18.4762C101.086 18.4762 102.228 18.7809 103.257 19.3905C104.305 20 105.124 20.8 105.752 21.8286C106.362 22.8381 106.667 23.9809 106.667 25.2381C106.667 26.4952 106.362 27.619 105.752 28.6476C105.143 29.6762 104.305 30.4952 103.257 31.1047C102.228 31.7143 101.067 32 99.8094 32ZM99.8094 29.2381C100.533 29.2381 101.2 29.0666 101.809 28.7047C102.419 28.3238 102.876 27.8476 103.219 27.2381C103.581 26.6476 103.752 25.9619 103.752 25.219C103.752 24.4762 103.581 23.8095 103.219 23.2C102.876 22.5905 102.4 22.1143 101.809 21.7714C101.2 21.3905 100.533 21.219 99.8094 21.219C99.0856 21.219 98.4189 21.4095 97.8094 21.7714C97.1999 22.1333 96.7237 22.6095 96.3618 23.2C96.0189 23.7905 95.8475 24.4762 95.8475 25.219C95.8475 25.9619 96.0189 26.6286 96.3618 27.2381C96.7237 27.8476 97.1999 28.3238 97.7713 28.7047C98.3808 29.0666 99.0475 29.2381 99.7904 29.2381H99.8094Z" fill="#4D7CC8"/>
<path d="M109.391 31.6571V18.8H112.133V21.0666C112.591 20.3238 113.181 19.7333 113.886 19.3143C114.61 18.8952 115.219 18.8 116.21 18.8L117.619 21.5619C117.352 21.4857 116.552 21.3524 116.21 21.3524C115.067 21.3524 114.133 21.7143 113.448 22.4381C112.762 23.1619 112.419 24.2095 112.419 25.5619V31.6381H109.391V31.6571Z" fill="#4D7CC8"/>
<path d="M118.743 38.0952L122.971 29.6381L117.619 18.819H120.99L123.505 23.9619C123.733 24.419 123.943 24.8571 124.133 25.2952C124.324 25.7143 124.495 26.1714 124.667 26.6666C124.838 26.1714 125.009 25.7143 125.2 25.2952C125.409 24.8762 125.619 24.419 125.848 23.9619L128.4 18.819H131.619L122 38.0952H118.743Z" fill="#4D7CC8"/>
<defs>
<linearGradient id="paint0_linear_4427_77281" x1="24" y1="0" x2="24" y2="48" gradientUnits="userSpaceOnUse">
<stop stop-color="#4FA4E8"/>
<stop offset="0.6" stop-color="#4D7CC8"/>
<stop offset="1" stop-color="#4168DA"/>
</linearGradient>
<linearGradient id="paint1_linear_4427_77281" x1="8.17139" y1="12.4572" x2="39.8476" y2="12.4572" gradientUnits="userSpaceOnUse">
<stop stop-color="#E1F1FF"/>
<stop offset="0.7" stop-color="#91BBFF"/>
</linearGradient>
<linearGradient id="paint2_linear_4427_77281" x1="37.0285" y1="6.72383" x2="16.4762" y2="39.6572" gradientUnits="userSpaceOnUse">
<stop stop-color="#E1F1FF"/>
<stop offset="1" stop-color="#91BBFF"/>
</linearGradient>
</defs>
</svg>